<mxfile host="drawio-plugin" modified="2024-01-16T18:23:39.627Z" agent="5.0 (Windows NT 10.0; Win64; x64) AppleWebKit/537.36 (KHTML, like Gecko) Chrome/111.0.0.0 Safari/537.36" etag="2brlQ9yyaR7-LhcTyvwh" version="20.5.3" type="embed"><diagram name="Seite-1" id="cxQT5OqkQS1NuZ_NjJlK"><mxGraphModel dx="780" dy="519" grid="1" gridSize="10" guides="1" tooltips="1" connect="1" arrows="1" fold="1" page="1" pageScale="1" pageWidth="827" pageHeight="1169" math="0" shadow="0"><root><mxCell id="0"/><mxCell id="1" parent="0"/><mxCell id="LWds2frH-b3ze7NJfMs8-12" style="edgeStyle=orthogonalEdgeStyle;rounded=0;orthogonalLoop=1;jettySize=auto;html=1;entryX=0.25;entryY=1;entryDx=0;entryDy=0;exitX=0.25;exitY=0;exitDx=0;exitDy=0;endSize=6;jumpSize=1;jumpStyle=line;" parent="1" source="LWds2frH-b3ze7NJfMs8-3" target="LWds2frH-b3ze7NJfMs8-5" edge="1"><mxGeometry relative="1" as="geometry"/></mxCell><mxCell id="LWds2frH-b3ze7NJfMs8-13" value="authentication failed" style="edgeLabel;html=1;align=center;verticalAlign=middle;resizable=0;points=[];" parent="LWds2frH-b3ze7NJfMs8-12" vertex="1" connectable="0"><mxGeometry x="0.168" relative="1" as="geometry"><mxPoint x="-114" y="30" as="offset"/></mxGeometry></mxCell><mxCell id="LWds2frH-b3ze7NJfMs8-3" value="" style="swimlane;startSize=0;" parent="1" vertex="1"><mxGeometry x="160" y="280" width="1000" height="850" as="geometry"/></mxCell><mxCell id="LWds2frH-b3ze7NJfMs8-4" value="&lt;font style=&quot;font-size: 10px;&quot;&gt;/&lt;/font&gt;" style="rounded=0;whiteSpace=wrap;html=1;" parent="LWds2frH-b3ze7NJfMs8-3" vertex="1"><mxGeometry x="80" y="40" width="120" height="40" as="geometry"/></mxCell><mxCell id="LWds2frH-b3ze7NJfMs8-14" value="&lt;font style=&quot;font-size: 10px;&quot;&gt;/logout&lt;/font&gt;" style="shape=ext;margin=3;double=1;whiteSpace=wrap;html=1;align=center;" parent="LWds2frH-b3ze7NJfMs8-3" vertex="1"><mxGeometry x="680" y="40" width="120" height="40" as="geometry"/></mxCell><mxCell id="LWds2frH-b3ze7NJfMs8-18" style="edgeStyle=orthogonalEdgeStyle;rounded=0;orthogonalLoop=1;jettySize=auto;html=1;entryX=0;entryY=0.5;entryDx=0;entryDy=0;" parent="LWds2frH-b3ze7NJfMs8-3" source="LWds2frH-b3ze7NJfMs8-17" target="LWds2frH-b3ze7NJfMs8-4" edge="1"><mxGeometry relative="1" as="geometry"/></mxCell><mxCell id="LWds2frH-b3ze7NJfMs8-17" value="" style="ellipse;whiteSpace=wrap;html=1;aspect=fixed;" parent="LWds2frH-b3ze7NJfMs8-3" vertex="1"><mxGeometry x="20" y="45" width="30" height="30" as="geometry"/></mxCell><mxCell id="LWds2frH-b3ze7NJfMs8-21" style="edgeStyle=orthogonalEdgeStyle;rounded=0;orthogonalLoop=1;jettySize=auto;html=1;entryX=0;entryY=0.25;entryDx=0;entryDy=0;exitX=1;exitY=0.25;exitDx=0;exitDy=0;" parent="LWds2frH-b3ze7NJfMs8-3" source="LWds2frH-b3ze7NJfMs8-19" target="LWds2frH-b3ze7NJfMs8-20" edge="1"><mxGeometry relative="1" as="geometry"/></mxCell><mxCell id="LWds2frH-b3ze7NJfMs8-58" style="edgeStyle=orthogonalEdgeStyle;rounded=0;orthogonalLoop=1;jettySize=auto;html=1;exitX=0;exitY=0.75;exitDx=0;exitDy=0;entryX=1;entryY=0.75;entryDx=0;entryDy=0;" parent="LWds2frH-b3ze7NJfMs8-3" source="LWds2frH-b3ze7NJfMs8-19" target="LWds2frH-b3ze7NJfMs8-30" edge="1"><mxGeometry relative="1" as="geometry"/></mxCell><mxCell id="LWds2frH-b3ze7NJfMs8-19" value="&lt;font style=&quot;font-size: 10px;&quot;&gt;/users&lt;/font&gt;" style="whiteSpace=wrap;html=1;align=center;" parent="LWds2frH-b3ze7NJfMs8-3" vertex="1"><mxGeometry x="280" y="120" width="120" height="40" as="geometry"/></mxCell><mxCell id="LWds2frH-b3ze7NJfMs8-22" style="edgeStyle=orthogonalEdgeStyle;rounded=0;orthogonalLoop=1;jettySize=auto;html=1;entryX=1;entryY=0.75;entryDx=0;entryDy=0;exitX=0;exitY=0.75;exitDx=0;exitDy=0;" parent="LWds2frH-b3ze7NJfMs8-3" source="LWds2frH-b3ze7NJfMs8-20" target="LWds2frH-b3ze7NJfMs8-19" edge="1"><mxGeometry relative="1" as="geometry"/></mxCell><mxCell id="LWds2frH-b3ze7NJfMs8-75" style="edgeStyle=orthogonalEdgeStyle;rounded=0;orthogonalLoop=1;jettySize=auto;html=1;entryX=0;entryY=0.25;entryDx=0;entryDy=0;exitX=1;exitY=0.25;exitDx=0;exitDy=0;" parent="LWds2frH-b3ze7NJfMs8-3" source="LWds2frH-b3ze7NJfMs8-20" target="LWds2frH-b3ze7NJfMs8-66" edge="1"><mxGeometry relative="1" as="geometry"/></mxCell><mxCell id="LWds2frH-b3ze7NJfMs8-20" value="&lt;font style=&quot;font-size: 10px;&quot;&gt;/user/&amp;lt;id_:int&amp;gt;&lt;/font&gt;" style="whiteSpace=wrap;html=1;align=center;" parent="LWds2frH-b3ze7NJfMs8-3" vertex="1"><mxGeometry x="480" y="120" width="120" height="40" as="geometry"/></mxCell><mxCell id="LWds2frH-b3ze7NJfMs8-27" style="edgeStyle=orthogonalEdgeStyle;rounded=0;orthogonalLoop=1;jettySize=auto;html=1;entryX=0;entryY=0.25;entryDx=0;entryDy=0;exitX=1;exitY=0.25;exitDx=0;exitDy=0;" parent="LWds2frH-b3ze7NJfMs8-3" source="LWds2frH-b3ze7NJfMs8-24" target="LWds2frH-b3ze7NJfMs8-25" edge="1"><mxGeometry relative="1" as="geometry"/></mxCell><mxCell id="LWds2frH-b3ze7NJfMs8-59" style="edgeStyle=orthogonalEdgeStyle;rounded=0;orthogonalLoop=1;jettySize=auto;html=1;exitX=0;exitY=0.75;exitDx=0;exitDy=0;entryX=1;entryY=0.75;entryDx=0;entryDy=0;" parent="LWds2frH-b3ze7NJfMs8-3" source="LWds2frH-b3ze7NJfMs8-24" target="LWds2frH-b3ze7NJfMs8-33" edge="1"><mxGeometry relative="1" as="geometry"/></mxCell><mxCell id="LWds2frH-b3ze7NJfMs8-24" value="&lt;font style=&quot;font-size: 10px;&quot;&gt;/admins&lt;/font&gt;" style="whiteSpace=wrap;html=1;align=center;" parent="LWds2frH-b3ze7NJfMs8-3" vertex="1"><mxGeometry x="280" y="210" width="120" height="40" as="geometry"/></mxCell><mxCell id="LWds2frH-b3ze7NJfMs8-28" style="edgeStyle=orthogonalEdgeStyle;rounded=0;orthogonalLoop=1;jettySize=auto;html=1;entryX=1;entryY=0.75;entryDx=0;entryDy=0;exitX=0;exitY=0.75;exitDx=0;exitDy=0;" parent="LWds2frH-b3ze7NJfMs8-3" source="LWds2frH-b3ze7NJfMs8-25" target="LWds2frH-b3ze7NJfMs8-24" edge="1"><mxGeometry relative="1" as="geometry"/></mxCell><mxCell id="LWds2frH-b3ze7NJfMs8-74" style="edgeStyle=orthogonalEdgeStyle;rounded=0;orthogonalLoop=1;jettySize=auto;html=1;entryX=0;entryY=0.25;entryDx=0;entryDy=0;exitX=1;exitY=0.25;exitDx=0;exitDy=0;" parent="LWds2frH-b3ze7NJfMs8-3" source="LWds2frH-b3ze7NJfMs8-25" target="LWds2frH-b3ze7NJfMs8-67" edge="1"><mxGeometry relative="1" as="geometry"/></mxCell><mxCell id="LWds2frH-b3ze7NJfMs8-25" value="&lt;font style=&quot;font-size: 10px;&quot;&gt;/adminUsers/&amp;lt;id_:int&amp;gt;&lt;/font&gt;" style="whiteSpace=wrap;html=1;align=center;" parent="LWds2frH-b3ze7NJfMs8-3" vertex="1"><mxGeometry x="480" y="210" width="120" height="40" as="geometry"/></mxCell><mxCell id="LWds2frH-b3ze7NJfMs8-31" style="edgeStyle=orthogonalEdgeStyle;rounded=0;orthogonalLoop=1;jettySize=auto;html=1;entryX=0;entryY=0.5;entryDx=0;entryDy=0;" parent="LWds2frH-b3ze7NJfMs8-3" source="LWds2frH-b3ze7NJfMs8-30" target="LWds2frH-b3ze7NJfMs8-19" edge="1"><mxGeometry relative="1" as="geometry"/></mxCell><mxCell id="LWds2frH-b3ze7NJfMs8-30" value="&lt;span style=&quot;font-size: 10px;&quot;&gt;/user/add&lt;/span&gt;" style="whiteSpace=wrap;html=1;align=center;" parent="LWds2frH-b3ze7NJfMs8-3" vertex="1"><mxGeometry x="80" y="120" width="120" height="40" as="geometry"/></mxCell><mxCell id="LWds2frH-b3ze7NJfMs8-34" style="edgeStyle=orthogonalEdgeStyle;rounded=0;orthogonalLoop=1;jettySize=auto;html=1;entryX=0;entryY=0.25;entryDx=0;entryDy=0;exitX=1;exitY=0.25;exitDx=0;exitDy=0;" parent="LWds2frH-b3ze7NJfMs8-3" source="LWds2frH-b3ze7NJfMs8-33" target="LWds2frH-b3ze7NJfMs8-24" edge="1"><mxGeometry relative="1" as="geometry"/></mxCell><mxCell id="LWds2frH-b3ze7NJfMs8-33" value="&lt;font style=&quot;font-size: 10px;&quot;&gt;/admin/add&lt;/font&gt;" style="whiteSpace=wrap;html=1;align=center;" parent="LWds2frH-b3ze7NJfMs8-3" vertex="1"><mxGeometry x="80" y="210" width="120" height="40" as="geometry"/></mxCell><mxCell id="LWds2frH-b3ze7NJfMs8-60" style="edgeStyle=orthogonalEdgeStyle;rounded=0;orthogonalLoop=1;jettySize=auto;html=1;exitX=0;exitY=0.75;exitDx=0;exitDy=0;entryX=1;entryY=0.75;entryDx=0;entryDy=0;" parent="LWds2frH-b3ze7NJfMs8-3" source="LWds2frH-b3ze7NJfMs8-36" target="LWds2frH-b3ze7NJfMs8-40" edge="1"><mxGeometry relative="1" as="geometry"/></mxCell><mxCell id="LWds2frH-b3ze7NJfMs8-36" value="&lt;span style=&quot;font-size: 10px;&quot;&gt;/subjects&lt;/span&gt;" style="whiteSpace=wrap;html=1;align=center;" parent="LWds2frH-b3ze7NJfMs8-3" vertex="1"><mxGeometry x="280" y="389.97" width="120" height="40" as="geometry"/></mxCell><mxCell id="LWds2frH-b3ze7NJfMs8-37" style="edgeStyle=orthogonalEdgeStyle;rounded=0;orthogonalLoop=1;jettySize=auto;html=1;entryX=1;entryY=0.75;entryDx=0;entryDy=0;exitX=0;exitY=0.75;exitDx=0;exitDy=0;" parent="LWds2frH-b3ze7NJfMs8-3" source="LWds2frH-b3ze7NJfMs8-38" target="LWds2frH-b3ze7NJfMs8-36" edge="1"><mxGeometry relative="1" as="geometry"/></mxCell><mxCell id="LWds2frH-b3ze7NJfMs8-73" style="edgeStyle=orthogonalEdgeStyle;rounded=0;orthogonalLoop=1;jettySize=auto;html=1;entryX=0;entryY=0.25;entryDx=0;entryDy=0;exitX=1;exitY=0.25;exitDx=0;exitDy=0;" parent="LWds2frH-b3ze7NJfMs8-3" source="LWds2frH-b3ze7NJfMs8-38" target="LWds2frH-b3ze7NJfMs8-68" edge="1"><mxGeometry relative="1" as="geometry"/></mxCell><mxCell id="LWds2frH-b3ze7NJfMs8-38" value="&lt;font style=&quot;font-size: 10px;&quot;&gt;/subject/&amp;lt;id_:int&amp;gt;&lt;/font&gt;" style="whiteSpace=wrap;html=1;align=center;" parent="LWds2frH-b3ze7NJfMs8-3" vertex="1"><mxGeometry x="480" y="389.97" width="120" height="40" as="geometry"/></mxCell><mxCell id="LWds2frH-b3ze7NJfMs8-35" style="edgeStyle=orthogonalEdgeStyle;rounded=0;orthogonalLoop=1;jettySize=auto;html=1;entryX=0;entryY=0.25;entryDx=0;entryDy=0;exitX=1;exitY=0.25;exitDx=0;exitDy=0;" parent="LWds2frH-b3ze7NJfMs8-3" source="LWds2frH-b3ze7NJfMs8-36" target="LWds2frH-b3ze7NJfMs8-38" edge="1"><mxGeometry relative="1" as="geometry"/></mxCell><mxCell id="LWds2frH-b3ze7NJfMs8-39" style="edgeStyle=orthogonalEdgeStyle;rounded=0;orthogonalLoop=1;jettySize=auto;html=1;entryX=0;entryY=0.25;entryDx=0;entryDy=0;exitX=1;exitY=0.25;exitDx=0;exitDy=0;" parent="LWds2frH-b3ze7NJfMs8-3" source="LWds2frH-b3ze7NJfMs8-40" target="LWds2frH-b3ze7NJfMs8-36" edge="1"><mxGeometry relative="1" as="geometry"/></mxCell><mxCell id="LWds2frH-b3ze7NJfMs8-40" value="&lt;font style=&quot;font-size: 10px;&quot;&gt;/subject/add&lt;/font&gt;" style="whiteSpace=wrap;html=1;align=center;" parent="LWds2frH-b3ze7NJfMs8-3" vertex="1"><mxGeometry x="80" y="389.97" width="120" height="40" as="geometry"/></mxCell><mxCell id="LWds2frH-b3ze7NJfMs8-61" style="edgeStyle=orthogonalEdgeStyle;rounded=0;orthogonalLoop=1;jettySize=auto;html=1;exitX=0;exitY=0.75;exitDx=0;exitDy=0;entryX=1;entryY=0.75;entryDx=0;entryDy=0;" parent="LWds2frH-b3ze7NJfMs8-3" source="LWds2frH-b3ze7NJfMs8-42" target="LWds2frH-b3ze7NJfMs8-46" edge="1"><mxGeometry relative="1" as="geometry"/></mxCell><mxCell id="19" style="edgeStyle=orthogonalEdgeStyle;rounded=0;orthogonalLoop=1;jettySize=auto;html=1;entryX=0.25;entryY=1;entryDx=0;entryDy=0;exitX=0.25;exitY=0;exitDx=0;exitDy=0;" edge="1" parent="LWds2frH-b3ze7NJfMs8-3" source="LWds2frH-b3ze7NJfMs8-42" target="LWds2frH-b3ze7NJfMs8-38"><mxGeometry relative="1" as="geometry"><Array as="points"><mxPoint x="310" y="450"/><mxPoint x="510" y="450"/></Array></mxGeometry></mxCell><mxCell id="LWds2frH-b3ze7NJfMs8-42" value="&lt;font style=&quot;font-size: 10px;&quot;&gt;/exercises&lt;/font&gt;" style="whiteSpace=wrap;html=1;align=center;" parent="LWds2frH-b3ze7NJfMs8-3" vertex="1"><mxGeometry x="280" y="479.97" width="120" height="40" as="geometry"/></mxCell><mxCell id="LWds2frH-b3ze7NJfMs8-43" style="edgeStyle=orthogonalEdgeStyle;rounded=0;orthogonalLoop=1;jettySize=auto;html=1;entryX=1;entryY=0.75;entryDx=0;entryDy=0;exitX=0;exitY=0.75;exitDx=0;exitDy=0;" parent="LWds2frH-b3ze7NJfMs8-3" source="LWds2frH-b3ze7NJfMs8-44" target="LWds2frH-b3ze7NJfMs8-42" edge="1"><mxGeometry relative="1" as="geometry"/></mxCell><mxCell id="LWds2frH-b3ze7NJfMs8-72" style="edgeStyle=orthogonalEdgeStyle;rounded=0;orthogonalLoop=1;jettySize=auto;html=1;entryX=0;entryY=0.25;entryDx=0;entryDy=0;exitX=1;exitY=0.25;exitDx=0;exitDy=0;" parent="LWds2frH-b3ze7NJfMs8-3" source="LWds2frH-b3ze7NJfMs8-44" target="LWds2frH-b3ze7NJfMs8-69" edge="1"><mxGeometry relative="1" as="geometry"/></mxCell><mxCell id="LWds2frH-b3ze7NJfMs8-44" value="&lt;font style=&quot;font-size: 10px;&quot;&gt;/exercise/&amp;lt;id_:int&amp;gt;&lt;/font&gt;" style="whiteSpace=wrap;html=1;align=center;" parent="LWds2frH-b3ze7NJfMs8-3" vertex="1"><mxGeometry x="480" y="479.97" width="120" height="40" as="geometry"/></mxCell><mxCell id="LWds2frH-b3ze7NJfMs8-41" style="edgeStyle=orthogonalEdgeStyle;rounded=0;orthogonalLoop=1;jettySize=auto;html=1;entryX=0;entryY=0.25;entryDx=0;entryDy=0;exitX=1;exitY=0.25;exitDx=0;exitDy=0;" parent="LWds2frH-b3ze7NJfMs8-3" source="LWds2frH-b3ze7NJfMs8-42" target="LWds2frH-b3ze7NJfMs8-44" edge="1"><mxGeometry relative="1" as="geometry"/></mxCell><mxCell id="LWds2frH-b3ze7NJfMs8-45" style="edgeStyle=orthogonalEdgeStyle;rounded=0;orthogonalLoop=1;jettySize=auto;html=1;entryX=0;entryY=0.25;entryDx=0;entryDy=0;exitX=1;exitY=0.25;exitDx=0;exitDy=0;" parent="LWds2frH-b3ze7NJfMs8-3" source="LWds2frH-b3ze7NJfMs8-46" target="LWds2frH-b3ze7NJfMs8-42" edge="1"><mxGeometry relative="1" as="geometry"/></mxCell><mxCell id="LWds2frH-b3ze7NJfMs8-46" value="&lt;font style=&quot;font-size: 10px;&quot;&gt;/exercise/add&lt;/font&gt;" style="whiteSpace=wrap;html=1;align=center;" parent="LWds2frH-b3ze7NJfMs8-3" vertex="1"><mxGeometry x="80" y="479.97" width="120" height="40" as="geometry"/></mxCell><mxCell id="LWds2frH-b3ze7NJfMs8-62" style="edgeStyle=orthogonalEdgeStyle;rounded=0;orthogonalLoop=1;jettySize=auto;html=1;exitX=0;exitY=0.75;exitDx=0;exitDy=0;entryX=1;entryY=0.75;entryDx=0;entryDy=0;" parent="LWds2frH-b3ze7NJfMs8-3" source="LWds2frH-b3ze7NJfMs8-47" target="LWds2frH-b3ze7NJfMs8-52" edge="1"><mxGeometry relative="1" as="geometry"/></mxCell><mxCell id="21" style="edgeStyle=orthogonalEdgeStyle;rounded=0;orthogonalLoop=1;jettySize=auto;html=1;entryX=0.25;entryY=1;entryDx=0;entryDy=0;exitX=0.25;exitY=0;exitDx=0;exitDy=0;" edge="1" parent="LWds2frH-b3ze7NJfMs8-3" source="LWds2frH-b3ze7NJfMs8-47" target="LWds2frH-b3ze7NJfMs8-44"><mxGeometry relative="1" as="geometry"><Array as="points"><mxPoint x="310" y="540"/><mxPoint x="510" y="540"/></Array></mxGeometry></mxCell><mxCell id="LWds2frH-b3ze7NJfMs8-47" value="&lt;font style=&quot;font-size: 10px;&quot;&gt;/tasks&lt;/font&gt;" style="whiteSpace=wrap;html=1;align=center;" parent="LWds2frH-b3ze7NJfMs8-3" vertex="1"><mxGeometry x="280" y="569.97" width="120" height="40" as="geometry"/></mxCell><mxCell id="LWds2frH-b3ze7NJfMs8-48" style="edgeStyle=orthogonalEdgeStyle;rounded=0;orthogonalLoop=1;jettySize=auto;html=1;entryX=1;entryY=0.75;entryDx=0;entryDy=0;exitX=0;exitY=0.75;exitDx=0;exitDy=0;" parent="LWds2frH-b3ze7NJfMs8-3" source="LWds2frH-b3ze7NJfMs8-49" target="LWds2frH-b3ze7NJfMs8-47" edge="1"><mxGeometry relative="1" as="geometry"/></mxCell><mxCell id="LWds2frH-b3ze7NJfMs8-53" style="edgeStyle=orthogonalEdgeStyle;rounded=0;orthogonalLoop=1;jettySize=auto;html=1;entryX=0.75;entryY=1;entryDx=0;entryDy=0;exitX=0.75;exitY=0;exitDx=0;exitDy=0;" parent="LWds2frH-b3ze7NJfMs8-3" source="LWds2frH-b3ze7NJfMs8-49" target="LWds2frH-b3ze7NJfMs8-44" edge="1"><mxGeometry relative="1" as="geometry"/></mxCell><mxCell id="LWds2frH-b3ze7NJfMs8-71" style="edgeStyle=orthogonalEdgeStyle;rounded=0;orthogonalLoop=1;jettySize=auto;html=1;entryX=0;entryY=0.25;entryDx=0;entryDy=0;exitX=1;exitY=0.25;exitDx=0;exitDy=0;" parent="LWds2frH-b3ze7NJfMs8-3" source="LWds2frH-b3ze7NJfMs8-49" target="LWds2frH-b3ze7NJfMs8-70" edge="1"><mxGeometry relative="1" as="geometry"/></mxCell><mxCell id="LWds2frH-b3ze7NJfMs8-49" value="&lt;font style=&quot;font-size: 10px;&quot;&gt;/task/&amp;lt;id_:int&amp;gt;&lt;/font&gt;" style="whiteSpace=wrap;html=1;align=center;" parent="LWds2frH-b3ze7NJfMs8-3" vertex="1"><mxGeometry x="480" y="569.97" width="120" height="40" as="geometry"/></mxCell><mxCell id="LWds2frH-b3ze7NJfMs8-50" style="edgeStyle=orthogonalEdgeStyle;rounded=0;orthogonalLoop=1;jettySize=auto;html=1;entryX=0;entryY=0.25;entryDx=0;entryDy=0;exitX=1;exitY=0.25;exitDx=0;exitDy=0;" parent="LWds2frH-b3ze7NJfMs8-3" source="LWds2frH-b3ze7NJfMs8-47" target="LWds2frH-b3ze7NJfMs8-49" edge="1"><mxGeometry relative="1" as="geometry"/></mxCell><mxCell id="LWds2frH-b3ze7NJfMs8-51" style="edgeStyle=orthogonalEdgeStyle;rounded=0;orthogonalLoop=1;jettySize=auto;html=1;entryX=0;entryY=0.25;entryDx=0;entryDy=0;exitX=1;exitY=0.25;exitDx=0;exitDy=0;" parent="LWds2frH-b3ze7NJfMs8-3" source="LWds2frH-b3ze7NJfMs8-52" target="LWds2frH-b3ze7NJfMs8-47" edge="1"><mxGeometry relative="1" as="geometry"/></mxCell><mxCell id="LWds2frH-b3ze7NJfMs8-52" value="&lt;font style=&quot;font-size: 10px;&quot;&gt;/task/add&lt;/font&gt;" style="whiteSpace=wrap;html=1;align=center;" parent="LWds2frH-b3ze7NJfMs8-3" vertex="1"><mxGeometry x="80" y="569.97" width="120" height="40" as="geometry"/></mxCell><mxCell id="LWds2frH-b3ze7NJfMs8-54" style="edgeStyle=orthogonalEdgeStyle;rounded=0;orthogonalLoop=1;jettySize=auto;html=1;entryX=0.5;entryY=0;entryDx=0;entryDy=0;exitX=0.5;exitY=1;exitDx=0;exitDy=0;" parent="LWds2frH-b3ze7NJfMs8-3" source="LWds2frH-b3ze7NJfMs8-44" target="LWds2frH-b3ze7NJfMs8-49" edge="1"><mxGeometry relative="1" as="geometry"/></mxCell><mxCell id="LWds2frH-b3ze7NJfMs8-55" style="edgeStyle=orthogonalEdgeStyle;rounded=0;orthogonalLoop=1;jettySize=auto;html=1;entryX=0.75;entryY=1;entryDx=0;entryDy=0;exitX=0.75;exitY=0;exitDx=0;exitDy=0;" parent="LWds2frH-b3ze7NJfMs8-3" source="LWds2frH-b3ze7NJfMs8-44" target="LWds2frH-b3ze7NJfMs8-38" edge="1"><mxGeometry relative="1" as="geometry"><mxPoint x="580" y="559.97" as="sourcePoint"/><mxPoint x="580" y="519.97" as="targetPoint"/></mxGeometry></mxCell><mxCell id="LWds2frH-b3ze7NJfMs8-57" style="edgeStyle=orthogonalEdgeStyle;rounded=0;orthogonalLoop=1;jettySize=auto;html=1;entryX=0.5;entryY=1;entryDx=0;entryDy=0;exitX=0.5;exitY=0;exitDx=0;exitDy=0;startArrow=classic;startFill=1;endArrow=none;endFill=0;" parent="LWds2frH-b3ze7NJfMs8-3" source="LWds2frH-b3ze7NJfMs8-44" target="LWds2frH-b3ze7NJfMs8-38" edge="1"><mxGeometry relative="1" as="geometry"><mxPoint x="520" y="519.97" as="sourcePoint"/><mxPoint x="520" y="559.97" as="targetPoint"/><Array as="points"/></mxGeometry></mxCell><mxCell id="LWds2frH-b3ze7NJfMs8-63" value="Routes used in the base template will not be listed here" style="text;html=1;align=center;verticalAlign=middle;resizable=0;points=[];autosize=1;strokeColor=none;fillColor=none;" parent="LWds2frH-b3ze7NJfMs8-3" vertex="1"><mxGeometry x="680" y="820" width="320" height="30" as="geometry"/></mxCell><mxCell id="LWds2frH-b3ze7NJfMs8-76" style="edgeStyle=orthogonalEdgeStyle;rounded=0;orthogonalLoop=1;jettySize=auto;html=1;entryX=0.5;entryY=0;entryDx=0;entryDy=0;exitX=0.5;exitY=0;exitDx=0;exitDy=0;" parent="LWds2frH-b3ze7NJfMs8-3" source="LWds2frH-b3ze7NJfMs8-66" target="LWds2frH-b3ze7NJfMs8-19" edge="1"><mxGeometry relative="1" as="geometry"/></mxCell><mxCell id="LWds2frH-b3ze7NJfMs8-66" value="&lt;font style=&quot;font-size: 10px;&quot;&gt;/user/delete/&amp;lt;id_:int&amp;gt;&lt;/font&gt;" style="shape=ext;margin=3;double=1;whiteSpace=wrap;html=1;align=center;" parent="LWds2frH-b3ze7NJfMs8-3" vertex="1"><mxGeometry x="680" y="120" width="120" height="40" as="geometry"/></mxCell><mxCell id="LWds2frH-b3ze7NJfMs8-77" style="edgeStyle=orthogonalEdgeStyle;rounded=0;orthogonalLoop=1;jettySize=auto;html=1;entryX=0.5;entryY=0;entryDx=0;entryDy=0;exitX=0.5;exitY=0;exitDx=0;exitDy=0;" parent="LWds2frH-b3ze7NJfMs8-3" source="LWds2frH-b3ze7NJfMs8-67" target="LWds2frH-b3ze7NJfMs8-24" edge="1"><mxGeometry relative="1" as="geometry"/></mxCell><mxCell id="LWds2frH-b3ze7NJfMs8-67" value="&lt;font style=&quot;font-size: 10px;&quot;&gt;/admin/delete/&amp;lt;id_:int&amp;gt;&lt;/font&gt;" style="shape=ext;margin=3;double=1;whiteSpace=wrap;html=1;align=center;" parent="LWds2frH-b3ze7NJfMs8-3" vertex="1"><mxGeometry x="680" y="210" width="120" height="40" as="geometry"/></mxCell><mxCell id="LWds2frH-b3ze7NJfMs8-78" style="edgeStyle=orthogonalEdgeStyle;rounded=0;orthogonalLoop=1;jettySize=auto;html=1;entryX=0.75;entryY=0;entryDx=0;entryDy=0;exitX=0.5;exitY=0;exitDx=0;exitDy=0;" parent="LWds2frH-b3ze7NJfMs8-3" source="LWds2frH-b3ze7NJfMs8-68" target="LWds2frH-b3ze7NJfMs8-36" edge="1"><mxGeometry relative="1" as="geometry"/></mxCell><mxCell id="LWds2frH-b3ze7NJfMs8-68" value="&lt;font style=&quot;font-size: 10px;&quot;&gt;/subject/delete/&amp;lt;id_:int&amp;gt;&lt;/font&gt;" style="shape=ext;margin=3;double=1;whiteSpace=wrap;html=1;align=center;" parent="LWds2frH-b3ze7NJfMs8-3" vertex="1"><mxGeometry x="680" y="389.97" width="120" height="40" as="geometry"/></mxCell><mxCell id="LWds2frH-b3ze7NJfMs8-79" style="edgeStyle=orthogonalEdgeStyle;rounded=0;orthogonalLoop=1;jettySize=auto;html=1;entryX=0.75;entryY=0;entryDx=0;entryDy=0;exitX=0.5;exitY=0;exitDx=0;exitDy=0;" parent="LWds2frH-b3ze7NJfMs8-3" source="LWds2frH-b3ze7NJfMs8-69" target="LWds2frH-b3ze7NJfMs8-42" edge="1"><mxGeometry relative="1" as="geometry"/></mxCell><mxCell id="LWds2frH-b3ze7NJfMs8-69" value="&lt;font style=&quot;font-size: 10px;&quot;&gt;/exercise/delete/&amp;lt;id_:int&amp;gt;&lt;/font&gt;" style="shape=ext;margin=3;double=1;whiteSpace=wrap;html=1;align=center;" parent="LWds2frH-b3ze7NJfMs8-3" vertex="1"><mxGeometry x="680" y="479.97" width="120" height="40" as="geometry"/></mxCell><mxCell id="LWds2frH-b3ze7NJfMs8-80" style="edgeStyle=orthogonalEdgeStyle;rounded=0;orthogonalLoop=1;jettySize=auto;html=1;entryX=0.75;entryY=0;entryDx=0;entryDy=0;exitX=0.5;exitY=0;exitDx=0;exitDy=0;" parent="LWds2frH-b3ze7NJfMs8-3" source="LWds2frH-b3ze7NJfMs8-70" target="LWds2frH-b3ze7NJfMs8-47" edge="1"><mxGeometry relative="1" as="geometry"/></mxCell><mxCell id="LWds2frH-b3ze7NJfMs8-70" value="&lt;font style=&quot;font-size: 10px;&quot;&gt;/task/delete/&amp;lt;id_:int&amp;gt;&lt;/font&gt;" style="shape=ext;margin=3;double=1;whiteSpace=wrap;html=1;align=center;" parent="LWds2frH-b3ze7NJfMs8-3" vertex="1"><mxGeometry x="680" y="569.97" width="120" height="40" as="geometry"/></mxCell><mxCell id="2" style="edgeStyle=orthogonalEdgeStyle;rounded=0;orthogonalLoop=1;jettySize=auto;html=1;entryX=1;entryY=0.75;entryDx=0;entryDy=0;exitX=0;exitY=0.75;exitDx=0;exitDy=0;" parent="LWds2frH-b3ze7NJfMs8-3" source="LWds2frH-b3ze7NJfMs8-68" target="LWds2frH-b3ze7NJfMs8-38" edge="1"><mxGeometry relative="1" as="geometry"><mxPoint x="680" y="429.97" as="sourcePoint"/><mxPoint x="600" y="429.97" as="targetPoint"/></mxGeometry></mxCell><mxCell id="3" style="edgeStyle=orthogonalEdgeStyle;rounded=0;orthogonalLoop=1;jettySize=auto;html=1;entryX=1;entryY=0.75;entryDx=0;entryDy=0;exitX=0;exitY=0.75;exitDx=0;exitDy=0;" parent="LWds2frH-b3ze7NJfMs8-3" source="LWds2frH-b3ze7NJfMs8-66" target="LWds2frH-b3ze7NJfMs8-20" edge="1"><mxGeometry relative="1" as="geometry"><mxPoint x="680" y="170" as="sourcePoint"/><mxPoint x="600" y="170" as="targetPoint"/></mxGeometry></mxCell><mxCell id="6" style="edgeStyle=orthogonalEdgeStyle;rounded=0;orthogonalLoop=1;jettySize=auto;html=1;exitX=0;exitY=0.75;exitDx=0;exitDy=0;entryX=1;entryY=0.75;entryDx=0;entryDy=0;" parent="LWds2frH-b3ze7NJfMs8-3" source="LWds2frH-b3ze7NJfMs8-67" target="LWds2frH-b3ze7NJfMs8-25" edge="1"><mxGeometry relative="1" as="geometry"><mxPoint x="667" y="260" as="sourcePoint"/><mxPoint x="610" y="240" as="targetPoint"/></mxGeometry></mxCell><mxCell id="4" style="edgeStyle=orthogonalEdgeStyle;rounded=0;orthogonalLoop=1;jettySize=auto;html=1;entryX=1;entryY=0.75;entryDx=0;entryDy=0;exitX=0;exitY=0.75;exitDx=0;exitDy=0;" parent="LWds2frH-b3ze7NJfMs8-3" source="LWds2frH-b3ze7NJfMs8-69" target="LWds2frH-b3ze7NJfMs8-44" edge="1"><mxGeometry relative="1" as="geometry"><mxPoint x="677" y="519.49" as="sourcePoint"/><mxPoint x="597" y="519.49" as="targetPoint"/></mxGeometry></mxCell><mxCell id="5" style="edgeStyle=orthogonalEdgeStyle;rounded=0;orthogonalLoop=1;jettySize=auto;html=1;entryX=1;entryY=0.75;entryDx=0;entryDy=0;exitX=0;exitY=0.75;exitDx=0;exitDy=0;" parent="LWds2frH-b3ze7NJfMs8-3" source="LWds2frH-b3ze7NJfMs8-70" target="LWds2frH-b3ze7NJfMs8-49" edge="1"><mxGeometry relative="1" as="geometry"><mxPoint x="680" y="619.97" as="sourcePoint"/><mxPoint x="600" y="619.97" as="targetPoint"/></mxGeometry></mxCell><mxCell id="9" value="&lt;font style=&quot;font-size: 10px;&quot;&gt;/profiles&lt;/font&gt;" style="whiteSpace=wrap;html=1;align=center;" parent="LWds2frH-b3ze7NJfMs8-3" vertex="1"><mxGeometry x="280" y="299.97" width="120" height="40" as="geometry"/></mxCell><mxCell id="10" style="edgeStyle=orthogonalEdgeStyle;rounded=0;orthogonalLoop=1;jettySize=auto;html=1;entryX=1;entryY=0.75;entryDx=0;entryDy=0;exitX=0;exitY=0.75;exitDx=0;exitDy=0;" parent="LWds2frH-b3ze7NJfMs8-3" source="12" target="9" edge="1"><mxGeometry relative="1" as="geometry"/></mxCell><mxCell id="12" value="&lt;font style=&quot;font-size: 10px;&quot;&gt;/profile/&amp;lt;id_:int&amp;gt;&lt;/font&gt;" style="whiteSpace=wrap;html=1;align=center;" parent="LWds2frH-b3ze7NJfMs8-3" vertex="1"><mxGeometry x="480" y="299.97" width="120" height="40" as="geometry"/></mxCell><mxCell id="7" style="edgeStyle=orthogonalEdgeStyle;rounded=0;orthogonalLoop=1;jettySize=auto;html=1;entryX=0;entryY=0.25;entryDx=0;entryDy=0;exitX=1;exitY=0.25;exitDx=0;exitDy=0;" parent="LWds2frH-b3ze7NJfMs8-3" source="9" target="12" edge="1"><mxGeometry relative="1" as="geometry"/></mxCell><mxCell id="13" style="edgeStyle=orthogonalEdgeStyle;rounded=0;orthogonalLoop=1;jettySize=auto;html=1;entryX=0;entryY=0.25;entryDx=0;entryDy=0;exitX=1;exitY=0.25;exitDx=0;exitDy=0;" parent="LWds2frH-b3ze7NJfMs8-3" source="14" target="9" edge="1"><mxGeometry relative="1" as="geometry"/></mxCell><mxCell id="14" value="&lt;font style=&quot;font-size: 10px;&quot;&gt;/profile/add&lt;/font&gt;" style="whiteSpace=wrap;html=1;align=center;" parent="LWds2frH-b3ze7NJfMs8-3" vertex="1"><mxGeometry x="80" y="299.97" width="120" height="40" as="geometry"/></mxCell><mxCell id="8" style="edgeStyle=orthogonalEdgeStyle;rounded=0;orthogonalLoop=1;jettySize=auto;html=1;exitX=0;exitY=0.75;exitDx=0;exitDy=0;entryX=1;entryY=0.75;entryDx=0;entryDy=0;" parent="LWds2frH-b3ze7NJfMs8-3" source="9" target="14" edge="1"><mxGeometry relative="1" as="geometry"/></mxCell><mxCell id="15" style="edgeStyle=orthogonalEdgeStyle;rounded=0;orthogonalLoop=1;jettySize=auto;html=1;entryX=0.5;entryY=0;entryDx=0;entryDy=0;exitX=0.5;exitY=0;exitDx=0;exitDy=0;" parent="LWds2frH-b3ze7NJfMs8-3" source="16" target="9" edge="1"><mxGeometry relative="1" as="geometry"/></mxCell><mxCell id="16" value="&lt;font style=&quot;font-size: 10px;&quot;&gt;/profile/delete/&amp;lt;id_:int&amp;gt;&lt;/font&gt;" style="shape=ext;margin=3;double=1;whiteSpace=wrap;html=1;align=center;" parent="LWds2frH-b3ze7NJfMs8-3" vertex="1"><mxGeometry x="680" y="299.97" width="120" height="40" as="geometry"/></mxCell><mxCell id="11" style="edgeStyle=orthogonalEdgeStyle;rounded=0;orthogonalLoop=1;jettySize=auto;html=1;entryX=0;entryY=0.25;entryDx=0;entryDy=0;exitX=1;exitY=0.25;exitDx=0;exitDy=0;" parent="LWds2frH-b3ze7NJfMs8-3" source="12" target="16" edge="1"><mxGeometry relative="1" as="geometry"/></mxCell><mxCell id="17" style="edgeStyle=orthogonalEdgeStyle;rounded=0;orthogonalLoop=1;jettySize=auto;html=1;exitX=0;exitY=0.75;exitDx=0;exitDy=0;entryX=1;entryY=0.75;entryDx=0;entryDy=0;" parent="LWds2frH-b3ze7NJfMs8-3" source="16" target="12" edge="1"><mxGeometry relative="1" as="geometry"><mxPoint x="507" y="69.97000000000003" as="sourcePoint"/><mxPoint x="450" y="49.97000000000003" as="targetPoint"/></mxGeometry></mxCell><mxCell id="26" style="edgeStyle=orthogonalEdgeStyle;rounded=0;orthogonalLoop=1;jettySize=auto;html=1;entryX=0.25;entryY=1;entryDx=0;entryDy=0;startArrow=none;startFill=0;endArrow=classic;endFill=1;exitX=1;exitY=0.5;exitDx=0;exitDy=0;" edge="1" parent="LWds2frH-b3ze7NJfMs8-3" source="23" target="LWds2frH-b3ze7NJfMs8-49"><mxGeometry relative="1" as="geometry"/></mxCell><mxCell id="23" value="&lt;span style=&quot;font-size: 10px;&quot;&gt;/task/&amp;lt;int:id_&amp;gt;/attachment/add&lt;/span&gt;" style="shape=ext;margin=3;double=1;whiteSpace=wrap;html=1;align=center;" vertex="1" parent="LWds2frH-b3ze7NJfMs8-3"><mxGeometry x="320" y="660" width="160" height="40" as="geometry"/></mxCell><mxCell id="28" style="edgeStyle=orthogonalEdgeStyle;rounded=0;orthogonalLoop=1;jettySize=auto;html=1;entryX=0.75;entryY=1;entryDx=0;entryDy=0;startArrow=none;startFill=0;endArrow=classic;endFill=1;exitX=0;exitY=0.5;exitDx=0;exitDy=0;" edge="1" parent="LWds2frH-b3ze7NJfMs8-3" source="24" target="LWds2frH-b3ze7NJfMs8-49"><mxGeometry relative="1" as="geometry"/></mxCell><mxCell id="24" value="&lt;span style=&quot;font-size: 10px;&quot;&gt;/task/&amp;lt;int:id_&amp;gt;/instruction/add&lt;/span&gt;" style="shape=ext;margin=3;double=1;whiteSpace=wrap;html=1;align=center;" vertex="1" parent="LWds2frH-b3ze7NJfMs8-3"><mxGeometry x="600" y="660" width="160" height="40" as="geometry"/></mxCell><mxCell id="29" value="&lt;span style=&quot;font-size: 10px;&quot;&gt;/task/&amp;lt;int:id_&amp;gt;/instruction/add&lt;/span&gt;" style="shape=ext;margin=3;double=1;whiteSpace=wrap;html=1;align=center;" vertex="1" parent="LWds2frH-b3ze7NJfMs8-3"><mxGeometry x="600" y="750" width="160" height="40" as="geometry"/></mxCell><mxCell id="30" value="&lt;span style=&quot;font-size: 10px;&quot;&gt;/task/&amp;lt;int:id_&amp;gt;/attachment/add&lt;/span&gt;" style="shape=ext;margin=3;double=1;whiteSpace=wrap;html=1;align=center;" vertex="1" parent="LWds2frH-b3ze7NJfMs8-3"><mxGeometry x="320" y="750" width="160" height="40" as="geometry"/></mxCell><mxCell id="33" style="edgeStyle=orthogonalEdgeStyle;rounded=0;orthogonalLoop=1;jettySize=auto;html=1;entryX=0.75;entryY=1;entryDx=0;entryDy=0;startArrow=none;startFill=0;endArrow=classic;endFill=1;exitX=0;exitY=0.5;exitDx=0;exitDy=0;" edge="1" parent="LWds2frH-b3ze7NJfMs8-3" source="29" target="LWds2frH-b3ze7NJfMs8-49"><mxGeometry relative="1" as="geometry"><mxPoint x="570.4799999999998" y="629.0800000000002" as="targetPoint"/></mxGeometry></mxCell><mxCell id="32" style="edgeStyle=orthogonalEdgeStyle;rounded=0;orthogonalLoop=1;jettySize=auto;html=1;startArrow=none;startFill=0;endArrow=classic;endFill=1;exitX=1;exitY=0.5;exitDx=0;exitDy=0;entryX=0.25;entryY=1;entryDx=0;entryDy=0;" edge="1" parent="LWds2frH-b3ze7NJfMs8-3" source="30" target="LWds2frH-b3ze7NJfMs8-49"><mxGeometry relative="1" as="geometry"><mxPoint x="510" y="630" as="targetPoint"/></mxGeometry></mxCell><mxCell id="LWds2frH-b3ze7NJfMs8-5" value="&lt;font style=&quot;font-size: 10px;&quot;&gt;/login&lt;/font&gt;" style="rounded=0;whiteSpace=wrap;html=1;" parent="1" vertex="1"><mxGeometry x="600" y="80" width="120" height="40" as="geometry"/></mxCell><mxCell id="LWds2frH-b3ze7NJfMs8-10" value="&lt;font style=&quot;font-size: 10px;&quot;&gt;no Rendered site&lt;/font&gt;" style="shape=ext;margin=3;double=1;whiteSpace=wrap;html=1;align=center;" parent="1" vertex="1"><mxGeometry y="320" width="120" height="40" as="geometry"/></mxCell><mxCell id="LWds2frH-b3ze7NJfMs8-11" value="&lt;font style=&quot;font-size: 10px;&quot;&gt;Rendered site&lt;/font&gt;" style="whiteSpace=wrap;html=1;align=center;" parent="1" vertex="1"><mxGeometry y="400" width="120" height="40" as="geometry"/></mxCell><mxCell id="LWds2frH-b3ze7NJfMs8-15" style="edgeStyle=orthogonalEdgeStyle;rounded=0;orthogonalLoop=1;jettySize=auto;html=1;entryX=0.75;entryY=1;entryDx=0;entryDy=0;exitX=0.5;exitY=0;exitDx=0;exitDy=0;" parent="1" source="LWds2frH-b3ze7NJfMs8-14" target="LWds2frH-b3ze7NJfMs8-5" edge="1"><mxGeometry relative="1" as="geometry"><Array as="points"><mxPoint x="860" y="200"/><mxPoint x="588" y="200"/></Array></mxGeometry></mxCell><mxCell id="LWds2frH-b3ze7NJfMs8-16" value="manual logout" style="edgeLabel;html=1;align=center;verticalAlign=middle;resizable=0;points=[];" parent="LWds2frH-b3ze7NJfMs8-15" vertex="1" connectable="0"><mxGeometry x="-0.6916" relative="1" as="geometry"><mxPoint y="-41" as="offset"/></mxGeometry></mxCell></root></mxGraphModel></diagram></mxfile>